<?xml version="1.0" encoding="iso-8859-1"?>
<!-- Uploaded to: SVG Repo, www.svgrepo.com, Generator: SVG Repo Mixer Tools -->
<svg version="1.1" id="Layer_1" xmlns="http://www.w3.org/2000/svg" xmlns:xlink="http://www.w3.org/1999/xlink" 
	 viewBox="0 0 512 512" xml:space="preserve">
<path style="fill:#B5E06C;" d="M433.376,249.727c10.546,13.606,16.831,30.685,16.831,49.234c0,44.432-36.017,80.437-80.437,80.437
	h-80.814h-65.924H142.23c-22.21,0-42.325-9.004-56.873-23.552c-14.56-14.56-23.564-34.663-23.564-56.885
	c0-37.099,25.129-68.314,59.286-77.612c-6.109-7.05-11.029-15.172-14.407-24.058c-3.378-8.875-5.238-18.503-5.238-28.578
	c0-43.62,34.734-79.107,78.048-80.378c0-0.012,0-0.035,0-0.059c0-42.255,34.263-76.506,76.518-76.506s76.506,34.251,76.506,76.506
	c0,0.024,0,0.047,0,0.059c21.657,0.636,41.172,9.828,55.272,24.305c14.101,14.489,22.787,34.263,22.787,56.073
	c0,20.139-7.415,38.535-19.644,52.636C407.999,225.998,422.818,236.132,433.376,249.727z"/>
<rect x="223.032" y="379.398" style="fill:#6E5B3F;" width="65.924" height="120.832"/>
<path d="M288.956,512h-65.924c-6.501,0-11.77-5.271-11.77-11.77V379.398c0-6.499,5.269-11.77,11.77-11.77
	c6.501,0,11.77,5.271,11.77,11.77V488.46h42.384V379.398c0-6.499,5.269-11.77,11.77-11.77c6.501,0,11.77,5.271,11.77,11.77V500.23
	C300.726,506.729,295.457,512,288.956,512z"/>
<path d="M390.057,126.845c-3.227,0-6.441-1.319-8.765-3.91c-0.634-0.707-1.282-1.402-1.944-2.082
	c-4.536-4.657-4.437-12.109,0.22-16.645c4.657-4.534,12.109-4.437,16.644,0.22c0.886,0.911,1.755,1.841,2.604,2.787
	c4.341,4.839,3.937,12.281-0.902,16.621C395.664,125.852,392.855,126.845,390.057,126.845z"/>
<path d="M369.77,391.168H142.23c-24.632,0-47.785-9.588-65.196-26.998c-17.419-17.419-27.011-40.577-27.011-65.209
	c0-35.917,20.941-68.156,52.528-83.238c-2.698-4.536-4.998-9.296-6.88-14.249c-3.984-10.468-6.006-21.492-6.006-32.761
	c0-24.15,9.275-46.977,26.117-64.279c14.268-14.657,32.643-24.005,52.59-26.923C173.72,33.87,210.979,0,256,0
	c45.034,0,82.298,33.893,87.623,77.511c7.971,1.169,15.724,3.376,23.157,6.598c5.964,2.586,8.702,9.517,6.116,15.481
	c-2.586,5.963-9.515,8.702-15.481,6.116c-7.988-3.464-16.484-5.351-25.254-5.608c-6.363-0.187-11.425-5.4-11.425-11.765
	c0-35.754-29.04-64.794-64.736-64.794c-35.702,0-64.747,29.04-64.747,64.736c0,6.365-5.061,11.637-11.425,11.824
	c-37.358,1.097-66.624,31.234-66.624,68.613c0,8.398,1.503,16.603,4.467,24.391c2.85,7.496,6.989,14.404,12.302,20.536
	c2.651,3.059,3.544,7.265,2.365,11.136c-1.178,3.871-4.263,6.867-8.167,7.928c-29.795,8.115-50.606,35.36-50.606,66.259
	c0,18.344,7.144,35.589,20.116,48.562c12.964,12.965,30.206,20.105,48.551,20.105h227.54c37.863,0,68.667-30.804,68.667-68.667
	c0-15.368-4.967-29.9-14.364-42.024c-9.122-11.744-21.996-20.353-36.244-24.232c-3.905-1.063-6.99-4.058-8.168-7.931
	c-1.177-3.874-0.282-8.079,2.369-11.137c10.812-12.466,16.765-28.42,16.765-44.924c0-8.34-1.477-16.485-4.389-24.206
	c-2.294-6.083,0.777-12.873,6.86-15.167c6.079-2.295,12.873,0.777,15.166,6.858c3.918,10.387,5.904,21.326,5.904,32.515
	c0,16.649-4.512,32.881-12.908,47.024c12.915,6.189,24.398,15.379,33.245,26.77c12.633,16.299,19.305,35.818,19.305,56.454
	C461.977,349.803,420.613,391.168,369.77,391.168z"/>
</svg>